HIERARCHY
ROOT Hips
{
	OFFSET -14.64140 90.27770 -84.91600
	CHANNELS 6 Xposition Yposition Zposition Zrotation Xrotation Yrotation
	JOINT Spine
	{
		OFFSET 0.00000 13.20850 -1.60436
		CHANNELS 3 Zrotation Xrotation Yrotation
		JOINT Spine1
		{
			OFFSET 0.00000 8.61716 0.00000
			CHANNELS 3 Zrotation Xrotation Yrotation
			JOINT Spine2
			{
				OFFSET 0.00000 8.61717 0.00000
				CHANNELS 3 Zrotation Xrotation Yrotation
				JOINT Spine3
				{
					OFFSET 0.00000 8.61717 0.00000
					CHANNELS 3 Zrotation Xrotation Yrotation
					JOINT Neck
					{
						OFFSET 0.00000 11.07920 1.10792
						CHANNELS 3 Zrotation Xrotation Yrotation
						JOINT Neck1
						{
							OFFSET 0.00000 7.08032 0.00000
							CHANNELS 3 Zrotation Xrotation Yrotation
							JOINT Head
							{
								OFFSET 0.00000 7.08031 0.00000
								CHANNELS 3 Zrotation Xrotation Yrotation
								End site
								{
									OFFSET 0.00000 0.00000 0.00000
								}
							}
						}
					}
					JOINT RightShoulder
					{
						OFFSET -0.01000 7.91373 5.19711
						CHANNELS 3 Zrotation Xrotation Yrotation
						JOINT RightArm
						{
							OFFSET -18.41580 0.00000 0.00000
							CHANNELS 3 Zrotation Xrotation Yrotation
							JOINT RightForeArm
							{
								OFFSET -29.11090 0.00000 0.00000
								CHANNELS 3 Zrotation Xrotation Yrotation
								JOINT RightHand
								{
									OFFSET -24.65040 0.00000 0.00000
									CHANNELS 3 Zrotation Xrotation Yrotation
									JOINT RightHandThumb1
									{
										OFFSET -5.35114 -0.85590 3.97906
										CHANNELS 3 Zrotation Xrotation Yrotation
										JOINT RightHandThumb2
										{
											OFFSET -4.52789 0.00000 0.00000
											CHANNELS 3 Zrotation Xrotation Yrotation
											JOINT RightHandThumb3
											{
												OFFSET -2.46976 0.00000 0.00000
												CHANNELS 3 Zrotation Xrotation Yrotation
												End site
												{
													OFFSET 0.00000 0.00000 0.00000
												}
											}
										}
									}
									JOINT RightHandIndex1
									{
										OFFSET -14.26970 0.00000 2.88139
										CHANNELS 3 Zrotation Xrotation Yrotation
										JOINT RightHandIndex2
										{
											OFFSET -5.48836 0.00000 0.00000
											CHANNELS 3 Zrotation Xrotation Yrotation
											JOINT RightHandIndex3
											{
												OFFSET -3.01859 0.00000 0.00000
												CHANNELS 3 Zrotation Xrotation Yrotation
												End site
												{
													OFFSET 0.00000 0.00000 0.00000
												}
											}
										}
									}
									JOINT RightHandMiddle1
									{
										OFFSET -14.26970 0.00000 -0.09147
										CHANNELS 3 Zrotation Xrotation Yrotation
										JOINT RightHandMiddle2
										{
											OFFSET -6.17441 0.00000 0.00000
											CHANNELS 3 Zrotation Xrotation Yrotation
											JOINT RightHandMiddle3
											{
												OFFSET -3.56743 0.00000 0.00000
												CHANNELS 3 Zrotation Xrotation Yrotation
												End site
												{
													OFFSET 0.00000 0.00000 0.00000
												}
											}
										}
									}
									JOINT RightHandRing1
									{
										OFFSET -12.69180 0.00000 -3.06433
										CHANNELS 3 Zrotation Xrotation Yrotation
										JOINT RightHandRing2
										{
											OFFSET -5.62556 0.00000 0.00000
											CHANNELS 3 Zrotation Xrotation Yrotation
											JOINT RightHandRing3
											{
												OFFSET -3.56744 0.00000 0.00000
												CHANNELS 3 Zrotation Xrotation Yrotation
												End site
												{
													OFFSET 0.00000 0.00000 0.00000
												}
											}
										}
									}
									JOINT RightHandPinky1
									{
										OFFSET -11.11390 0.00000 -6.03719
										CHANNELS 3 Zrotation Xrotation Yrotation
										JOINT RightHandPinky2
										{
											OFFSET -4.52789 0.00000 0.00000
											CHANNELS 3 Zrotation Xrotation Yrotation
											JOINT RightHandPinky3
											{
												OFFSET -2.46976 0.00000 0.00000
												CHANNELS 3 Zrotation Xrotation Yrotation
												End site
												{
													OFFSET 0.00000 0.00000 0.00000
												}
											}
										}
									}
								}
							}
						}
					}
					JOINT LeftShoulder
					{
						OFFSET 0.01000 7.91373 5.19711
						CHANNELS 3 Zrotation Xrotation Yrotation
						JOINT LeftArm
						{
							OFFSET 18.41580 0.00000 0.00000
							CHANNELS 3 Zrotation Xrotation Yrotation
							JOINT LeftForeArm
							{
								OFFSET 29.11090 0.00000 0.00000
								CHANNELS 3 Zrotation Xrotation Yrotation
								JOINT LeftHand
								{
									OFFSET 24.65040 0.00000 0.00000
									CHANNELS 3 Zrotation Xrotation Yrotation
									JOINT LeftHandThumb1
									{
										OFFSET 5.35114 -0.85590 3.97906
										CHANNELS 3 Zrotation Xrotation Yrotation
										JOINT LeftHandThumb2
										{
											OFFSET 4.52789 0.00000 0.00000
											CHANNELS 3 Zrotation Xrotation Yrotation
											JOINT LeftHandThumb3
											{
												OFFSET 2.46977 0.00000 0.00000
												CHANNELS 3 Zrotation Xrotation Yrotation
												End site
												{
													OFFSET 0.00000 0.00000 0.00000
												}
											}
										}
									}
									JOINT LeftHandIndex1
									{
										OFFSET 14.26970 0.00000 2.88139
										CHANNELS 3 Zrotation Xrotation Yrotation
										JOINT LeftHandIndex2
										{
											OFFSET 5.48836 0.00000 0.00000
											CHANNELS 3 Zrotation Xrotation Yrotation
											JOINT LeftHandIndex3
											{
												OFFSET 3.01859 0.00000 0.00000
												CHANNELS 3 Zrotation Xrotation Yrotation
												End site
												{
													OFFSET 0.00000 0.00000 0.00000
												}
											}
										}
									}
									JOINT LeftHandMiddle1
									{
										OFFSET 14.26970 0.00000 -0.09147
										CHANNELS 3 Zrotation Xrotation Yrotation
										JOINT LeftHandMiddle2
										{
											OFFSET 6.17440 0.00000 0.00000
											CHANNELS 3 Zrotation Xrotation Yrotation
											JOINT LeftHandMiddle3
											{
												OFFSET 3.56744 0.00000 0.00000
												CHANNELS 3 Zrotation Xrotation Yrotation
												End site
												{
													OFFSET 0.00000 0.00000 0.00000
												}
											}
										}
									}
									JOINT LeftHandRing1
									{
										OFFSET 12.69180 0.00000 -3.06433
										CHANNELS 3 Zrotation Xrotation Yrotation
										JOINT LeftHandRing2
										{
											OFFSET 5.62556 0.00000 0.00000
											CHANNELS 3 Zrotation Xrotation Yrotation
											JOINT LeftHandRing3
											{
												OFFSET 3.56744 0.00000 0.00000
												CHANNELS 3 Zrotation Xrotation Yrotation
												End site
												{
													OFFSET 0.00000 0.00000 0.00000
												}
											}
										}
									}
									JOINT LeftHandPinky1
									{
										OFFSET 11.11390 0.00000 -6.03719
										CHANNELS 3 Zrotation Xrotation Yrotation
										JOINT LeftHandPinky2
										{
											OFFSET 4.52789 0.00000 0.00000
											CHANNELS 3 Zrotation Xrotation Yrotation
											JOINT LeftHandPinky3
											{
												OFFSET 2.46976 0.00000 0.00000
												CHANNELS 3 Zrotation Xrotation Yrotation
												End site
												{
													OFFSET 0.00000 0.00000 0.00000
												}
											}
										}
									}
								}
							}
						}
					}
					JOINT pCube4
					{
						OFFSET 0.00000 10.91090 1.10792
						CHANNELS 3 Zrotation Xrotation Yrotation
						End site
						{
							OFFSET 0.00000 0.00000 0.00000
						}
					}
				}
			}
		}
	}
	JOINT RightUpLeg
	{
		OFFSET -9.98441 0.00000 0.00000
		CHANNELS 3 Zrotation Xrotation Yrotation
		JOINT RightLeg
		{
			OFFSET 0.00000 -42.11790 0.00000
			CHANNELS 3 Zrotation Xrotation Yrotation
			JOINT RightFoot
			{
				OFFSET 0.00000 -45.00020 -0.00001
				CHANNELS 3 Zrotation Xrotation Yrotation
				JOINT RightForeFoot
				{
					OFFSET 0.00000 -3.74820 0.00000
					CHANNELS 3 Zrotation Xrotation Yrotation
					JOINT RightToeBase
					{
						OFFSET 0.00000 0.06325 14.43120
						CHANNELS 3 Zrotation Xrotation Yrotation
						End site
						{
							OFFSET 0.00000 0.00000 0.00000
						}
					}
				}
			}
		}
	}
	JOINT LeftUpLeg
	{
		OFFSET 9.98441 0.00000 0.00000
		CHANNELS 3 Zrotation Xrotation Yrotation
		JOINT LeftLeg
		{
			OFFSET 0.00000 -42.11800 0.00000
			CHANNELS 3 Zrotation Xrotation Yrotation
			JOINT LeftFoot
			{
				OFFSET 0.00000 -45.00070 0.00000
				CHANNELS 3 Zrotation Xrotation Yrotation
				JOINT LeftForeFoot
				{
					OFFSET 0.00000 -3.74824 0.00000
					CHANNELS 3 Zrotation Xrotation Yrotation
					JOINT LeftToeBase
					{
						OFFSET 0.00000 0.06325 14.43110
						CHANNELS 3 Zrotation Xrotation Yrotation
						End site
						{
							OFFSET 0.00000 0.00000 0.00000
						}
					}
				}
			}
		}
	}
}
MOTION
Frames: 4
Frame Time: 0.050000
-0.034455447135394654 -0.01067694494737258 -0.02415751289703529 -0.03857688153539693 -0.008731456911110644 0.011573653720523333 1.4030000369161495 2.3660048388807517 -1.452755009668281 -0.47814448848261715 3.9463771737568076 0.29711353422244335 -0.6848099258607553 -1.4295182246663396 1.8705674624913449 -0.8373170732323725 -0.6530704859881497 -0.20692269690308643 -0.005917571497936092 12.417955668631517 -0.7607058544011129 0.48119667033095814 -1.1211029219068371 -3.0349687978198605 0.8819673456808298 -17.07744685052309 -0.3311385195339691 -4.5262182503232875 1.9066760542711778 -16.134477772820645 72.48586802455897 15.278117214386812 6.966639705158281 0.4105082460771332 1.441205498685508 65.51896340607854 27.351657054510238 -0.31584335416169906 -5.758873727326098 4.529883457886431 -0.10277657857765858 -1.5912005439331636 0.0060296162657107865 -0.028202085608452235 -56.27940192362988 0.035455815610666574 -0.0435909635317911 -56.282454016460605 -38.76287457470174 0.01680834314851834 -0.01277824297972112 0.033852551499248124 -0.015936660862854047 -0.023665633349375523 0.003477659664287311 -0.04479039199700168 0.026623677604189856 -36.696094193110845 -0.021848196605431407 0.003215049209151266 0.00023685923470316884 -0.020698081806922404 -0.02190495261100887 -0.003199110305667946 -0.005453896836758441 -0.014524436827487401 -19.732352844577846 0.012186242492179651 0.04487834919843998 -0.047263418174223186 0.013281192749509839 0.012954574763419149 0.04095191267331381 0.013992586088354858 0.04634218134315996 24.077579360225833 -0.003414904747150694 0.013368969066139859 28.88637902690875 -0.022112842462471687 -0.04349818672284824 28.868003977656585 -0.011096144540166192 0.02325749133813509 4.320341381297144 1.3266924492309384 14.944909871420798 -79.15020407185743 22.12419721603597 -2.0966000072324658 9.445630386430448 3.9590568703904636 -36.81651498332723 -28.529680085547927 9.202107182694803 -5.094470401894003 -0.5015929505522282 0.027490716118350828 -8.151252922777548 0.017594688900199246 0.011318342856090598 44.60857923966169 -0.04333516517904374 -0.036184710540107204 44.6040805856069 12.450605727020253 0.01941864546308106 -0.011346391920171998 -0.0026048930794243005 -0.03447133870424321 -0.00909569258802107 0.016193748108547828 -0.0359286197683487 -0.029021694432892958 11.126898942437029 -0.028581300560284767 0.014058259308174026 0.01919002140772256 -0.018469509878088805 -0.002032195835952016 0.021181751086257257 -0.022755587698680014 -0.04271453013299642 4.7337509508729525 0.01093124117389045 0.018155626825223044 -0.004755593748090923 0.02365400691120227 -0.01748296609278153 0.04182571048345806 0.04514737883213593 0.032056836175363264 -5.59263583510446 0.01986974414877896 0.020186075975106396 -6.738720082554126 0.01960238795711562 0.021874861622716606 -6.722219334999568 -0.00451224326069317 -0.0199114436983302 0.01548436997240685 -0.019972632428752257 0.025116537182231658 8.033293576131298 3.4445420319475466 -19.255896536207164 0.01184860668197715 10.3653848973158 -0.009113600528631121 -5.599422156321863 -15.632190591541137 3.2132950378435963 -0.01540257436954472 -0.004422869543078413 0.00459241591049569 -0.037512986036845254 4.67592821994267 -0.0024304744296783994 12.415287011105661 -8.217849013630072 6.881478071181885 -0.02900632140142131 46.40717500703407 0.013701308587857966 -4.3624774874488805 -14.77050581126798 -3.8580248573779676 -0.013273848074172211 -0.005461220958135664 0.03438038002804062 0.007300390419063236 -10.71684240514942 -0.045325364428273625 
-0.03795973971836746 0.024392946740140867 -0.03333830557110845 -0.012932385594824165 -0.028753731083069573 -0.017665633824486108 1.7642628171902184 2.5215396367832605 -1.5631080868207832 -0.5067527926764912 3.8576066130589726 0.3515049116653557 -0.6662214634728353 -1.4082659661517676 1.74175480167414 -0.7815832427853621 -0.5684360940479202 -0.2191713027885802 0.06799398419853175 12.333659853255341 -0.8625206017723946 0.465452233682045 -1.1214212674298176 -2.981008549239335 0.992245187283705 -17.08204658453735 -0.32361587895722266 -5.078377938605555 2.0812679079585488 -16.47571552247206 74.4649552307931 13.918079727395732 6.054059569001765 -1.6701640523079135 0.836859417753818 61.87989630946206 26.997759984461325 -0.24838183550092374 -5.682923749689854 4.4874581368648805 -0.11577580751355805 -1.5697610542839802 -0.012903430063017148 -0.01244293416418525 -56.20427182218698 -0.013261722968405403 0.01791301328369712 -56.269771471310214 -38.76864067385012 -0.02007170663156604 -0.03200983627435045 0.010763210166922239 0.002722877380673643 -0.0409591908272956 0.011057627736851266 0.037957106892588924 -0.04268259269447774 -36.70337273836165 -0.020876582359282962 0.019461810794417632 -0.006714604153109338 -0.04163913024810669 0.04425451115557757 -0.04524580627144718 0.046912590738494346 -0.027206289384105995 -19.738425491950817 -0.009707665920154658 0.023353018640229792 0.03297751975904073 0.03210227818025983 -0.04158790818549944 0.013880976837767359 0.03709067706532413 -0.01849418969503804 24.043832559808095 -0.03756053467242442 -0.034545040010487554 28.9061325156556 0.011269282574222415 -0.008406672433432913 28.908584834882987 0.03547341945653299 -0.033031417928005714 4.763170925774057 1.4430256090896063 14.877017652667687 -79.3736445481126 21.76516764120274 -2.6364437430528995 9.422381976246685 3.507720255093786 -36.14826370177087 -27.74749995523769 8.075950184962792 -4.059039369132011 -0.5013845100977811 0.08430852262747393 -8.128392912796755 0.013086736994644325 -0.00459446222977842 44.576005288746984 -0.04187716133399833 -0.038738062104617006 44.597078482461086 12.437769191600076 0.021206226686550544 0.0035228521786451524 -0.011079356441807511 -0.0453525804848645 0.01004765578488084 0.046378323517853697 -0.01430556974134206 0.020832198288512693 11.06815066209794 -0.023183311787742356 -0.009570806702393112 0.01963255667246151 0.0498897124516316 -0.02218817621474064 0.01615652832293546 0.03949436683639615 0.016997902590441174 4.803663336720168 -0.03273884130665881 -0.02857858503045206 0.0356658705093284 0.0439012048731627 0.04763778843761575 0.006084918329519399 0.003856788750057627 -0.026820282687467088 -5.647404171413091 -0.04933031057226895 -0.027443917567504535 -6.694839133380248 0.012891814226853166 0.005362945183173263 -6.750622460419787 0.023109644889182053 0.012993494357254822 -0.006933520312891079 -0.032104920984029436 -0.02262206181928146 8.072302603327538 3.530809726593765 -19.182030281381405 0.020255387692692143 10.356866856624894 0.003532017490000006 -5.609367332685321 -15.643566771177277 3.2110062130919728 -0.04213685951490719 0.01667101065675725 0.022012726115794197 0.007249764684464533 4.735379921471117 -0.01595043490578385 12.429188307657586 -8.284464728564252 6.866541075617065 -0.012237661288473091 46.32995360824473 -0.005496041704762109 -4.3637877328646715 -14.76901364255874 -3.8523753593570587 0.01710707756867148 -0.04957747766186545 -0.026176568584754846 0.028673073459402485 -10.749441040052034 0.02976372523976824 
-0.040034809121514095 0.031511399212298306 -0.043360315513964125 -0.0006114038022445342 -0.03182167143991073 -0.015210155687729286 2.3191741138395594 2.627635611194453 -1.7038114951846768 -0.5634615012673089 3.868473835986123 0.3778535730471541 -0.6284417138118914 -1.3821091417747804 1.6114904038218778 -0.7918221556228465 -0.5373788719297536 -0.20768132690647284 0.08783260266330518 12.359040867818006 -1.0425525364091814 0.5551307425157683 -1.069890206819527 -3.082641892178724 1.0292748448127418 -17.18479141446943 -0.34209142903725365 -5.865560547179389 2.2537559676472894 -16.84079353434115 76.17132777833565 12.974691344386384 5.6075775567720445 -3.5785087375577254 0.196695488528275 59.591431946812435 26.673970429435972 -0.29625338812183 -5.71649381796526 4.566359077543719 -0.10665255932598283 -1.5580011784166483 -0.00599673639958468 -0.02537441872161357 -56.21044371069733 0.002860735492795002 -0.022560611411072212 -56.19336579333504 -38.73633864765307 -0.002655133705258925 -0.038576226159724475 0.015576633844962285 0.03449129367102576 0.03663031904807191 -0.024584429139133876 0.0069705256438752266 -0.045388080302136896 -36.6813119132509 -0.003446662867348063 0.02834516388064209 -0.020528868218444282 -0.014849797734090179 0.04101810251611488 -0.03551865891951955 -0.0025004630116647313 0.006390867844019801 -19.78017574808522 -0.0018756792751996507 0.033140425251880115 -0.013615845587815863 -0.03646399241578079 -0.0022653752608452695 -0.03287937551878846 0.029466236144977717 0.016352568281496973 24.092295007561464 0.03860415438713766 -0.020170838802538643 28.889817085188046 0.02589631620220285 0.03699421318152217 28.87013180186826 -0.018730092911211447 0.03507847702143277 5.352205670612476 1.5164289229442054 15.028366398659548 -79.61391785598137 21.19860680093263 -3.203381425299026 9.383254942588321 3.632666019503553 -35.82389018803502 -27.103881224364166 7.048112776672362 -3.197870838871607 -0.46672129434336185 0.06764600479652357 -8.127020041531114 0.035964912186523736 0.03227859201663407 44.541473403560566 0.015148309149361328 0.003294831819534946 44.615374879503484 12.472234408310422 -0.009294689708195693 0.02384166461875337 -0.0023741674407774587 0.04397539230345584 0.02635492664086394 0.020791695996684536 0.013688824715309415 0.04606195100821235 11.065748483398323 -0.010202171558830495 0.019320476990445878 0.020349788815582935 -0.02910865929467366 -0.02891948220724569 -0.0009480817868008968 0.012035832014301374 -0.0005782188944499112 4.809107601547315 -0.025643453417439295 -0.004813685904650742 0.006448622583187554 0.046986018748722345 -0.013475011880565551 -0.014896731717014831 -0.028434670626664837 0.0026532165182276257 -5.568657204321235 -0.0019847923410644514 0.013517245860413224 -6.68638250006429 0.02022503107692432 0.005654443489725033 -6.704259572770519 -0.03250040493163521 0.001118402551767017 -0.013917817453794445 0.002040073699785711 -0.0186138030928629 8.040267379506219 3.4944917792690626 -19.179068887544886 0.008078099683652777 10.351515143911042 -0.0011100182429484538 -5.627220855430945 -15.64098839107837 3.21465713637703 -0.022154416893900703 0.002660970002039264 -0.036507563872142886 0.019373121755976563 4.680744417776737 -0.015913158601507067 12.46323628524969 -8.244884686594883 6.883334838079269 -0.006487048451256325 46.41291734895249 -0.0315076382366768 -4.313969278674619 -14.770182292399092 -3.848438518127011 -0.0063286626785425135 0.042431292848154 0.04263678626595858 -0.026296071520506364 -10.705028020555094 0.00650602678672392 
0.010179667587195214 -0.012850050468912603 0.0006963445419378904 -0.01087349078479333 -0.02308168264499766 -0.021249709342038695 2.930625349378012 2.794697823808527 -1.7800352444886796 -0.5821181711789808 3.7961556988810248 0.33161260500401185 -0.6537714600908526 -1.3474669989284442 1.6359677077813886 -0.7603399102677304 -0.5436753303041808 -0.1729491896205366 0.21427113192891106 12.394707556442084 -1.2184888980555446 0.5828549439498395 -0.9450473098921712 -3.2678377362620243 1.1160459573288164 -17.23733565011815 -0.32485940689820164 -6.594859863649462 2.526716185431195 -17.15956136713225 77.67434270285884 12.47819929103576 5.219384268214646 -5.799150785122656 0.21948120674831154 57.46699337959445 26.180181653916662 -0.28291095176137404 -5.683721056617072 4.5214369783533 -0.1399898188973639 -1.6137237406762508 -0.048977860959449386 -0.003518293413086776 -56.26402879076763 -0.001989267768042016 -0.019811100365443538 -56.261195740899495 -38.74221690063179 0.002407887148459576 -0.03417037471661558 0.03888453767337012 0.02391979590735231 0.018408483823824155 -0.01836518551347517 0.006292088848410703 0.00575356813069195 -36.73972460424907 0.030921115596479278 0.0018141447086633378 -0.03493359537968307 -0.01394354583444831 -0.02808484805323943 0.027054402225829187 0.03007528324657315 -0.039640537215086785 -19.76894022457998 0.037980352316611725 -0.048799826030285216 0.010107712627177063 -0.017055057070190928 0.03196395814655429 -0.03793620006261124 -0.012195336538478707 0.011565079600387823 24.04144589668123 0.016403626196054236 0.005598991831213363 28.82498005765831 0.0037422290779222022 -0.03880534709021296 28.86189128398218 0.038368627491563015 0.006061473249642776 6.0050080522594875 1.6688590082054915 15.160802048659088 -79.78836660685339 20.749766956453747 -3.6982933090210106 9.190357462965961 4.163139033670012 -35.76393856874569 -26.503465628622937 6.061291373298778 -2.371717306862707 -0.4363743956325701 0.07905546693948562 -8.164404051277364 -0.03295651034750417 -0.015230968471148059 44.55318873720156 -0.033039338729946376 0.022941917079365857 44.56610157850645 12.481812814037148 0.007376242100958439 -0.012519967241491377 0.0330117786297222 0.009662838254144919 -0.04085081714901338 -0.009487207805466686 -0.026182304473069212 -0.03168576374225495 11.102573707040579 0.014392571438051446 0.04236691294975229 -0.035694740724846526 -0.02089297465103438 -0.01982359169619306 0.00015529617485885846 0.03935858052321963 0.03270548707274217 4.790237522511946 -0.02689624156419789 0.030801133957906558 -0.03260772202201486 0.02047210723092218 0.03426569063059593 -0.010958952069473872 -0.010624670602406858 0.015226187108041354 -5.621928736505936 -0.03296927365801603 0.013380647266902598 -6.689572622814001 0.004041028773482556 0.034684332904635726 -6.683334062494388 -0.03648166470546993 -0.0086699164877631 -0.027820810333150592 -0.009594251227688866 0.03509472938390693 8.088941294162588 3.4720143741061906 -19.241784675137705 0.0413217867869098 10.359537673575629 0.0076924092173729815 -5.639810925649398 -15.689992088494279 3.1753800620110106 -0.016259001112930438 -0.0045203757808679095 0.04432242304871161 0.02583079166760541 4.673806038930048 0.005183912955523068 12.421642162829382 -8.233533800806814 6.888042283704795 -0.02849779992029008 46.39782696130147 -0.018403652487736955 -4.3298240598303614 -14.722569274415463 -3.805636274566458 0.01853468894983103 0.0272707907012681 -0.011293117302335447 -0.006820274043797944 -10.75981679147324 -0.040323760059453505 
